<svg width="20" height="22" viewBox="0 0 20 22" fill="none" xmlns="http://www.w3.org/2000/svg">
<path fill-rule="evenodd" clip-rule="evenodd" d="M2.18283 10.8958L15.7292 20.3695L15.7299 20.37C15.861 20.4599 15.9743 20.5007 16.082 20.4803C16.2013 20.4577 16.3048 20.3722 16.4092 20.2633C16.567 20.0987 16.8167 20.106 16.9664 20.2796C17.116 20.4533 17.1094 20.7279 16.9515 20.8925C16.7224 21.1315 16.4776 21.2853 16.2156 21.3349C15.9425 21.3866 15.6426 21.333 15.3093 21.1033L15.307 21.1017L1.75766 11.626C1.75629 11.625 1.75493 11.6241 1.75359 11.6231L1.75339 11.6229C1.42419 11.3863 1.25435 11.1093 1.18259 10.8148C1.11372 10.5323 1.13804 10.2234 1.23929 9.89443C1.30901 9.66778 1.53293 9.54605 1.73896 9.62279C1.94503 9.69949 2.05566 9.9458 1.98589 10.1724C1.93978 10.3223 1.91256 10.4615 1.94393 10.5902C1.97221 10.7063 2.0535 10.8025 2.18283 10.8958ZM15.9483 0.83651C16.9398 1.32495 17.3841 2.60691 16.9401 3.6975C16.4961 4.78805 15.3307 5.27693 14.3393 4.78849C13.3479 4.30004 12.9035 3.01805 13.3476 1.92749C13.7916 0.836941 14.957 0.348067 15.9483 0.83651ZM9.84529 8.31776L10.8106 5.94698C10.8519 5.84542 10.8617 5.73172 10.8385 5.62342C10.8153 5.51512 10.7603 5.41822 10.6821 5.34767L8.59231 3.46353C8.17507 3.08776 8.02237 2.76936 8.1953 2.33794L8.20883 2.30417C8.38177 1.87271 8.75203 1.54922 9.23209 1.8674C9.23209 1.8674 11.2058 3.45296 11.7418 3.92332C11.8326 4.00295 11.9321 4.06965 12.038 4.12184C12.6808 4.43851 15.0396 5.73004 15.8215 6.1153C15.9854 6.19605 16.1356 6.30708 16.2654 6.44358L18.4108 8.69819C18.7277 9.03901 18.9734 9.3996 18.7959 9.82877L18.782 9.86242C18.6045 10.2916 18.1295 10.6202 17.7542 10.286L15.5677 7.93832C15.5538 7.92338 15.5368 7.91235 15.5182 7.90617C15.4996 7.89999 15.48 7.89885 15.4609 7.90285C15.4418 7.90684 15.4239 7.91585 15.4086 7.92911C15.3934 7.94237 15.3813 7.95949 15.3734 7.979L14.1126 11.0757L16.1337 14.1501C16.2485 14.3247 16.3063 14.5368 16.2978 14.752C16.2893 14.9672 16.2149 15.173 16.0868 15.3359L14.3695 17.5196C14.2322 17.694 14.0376 17.8014 13.8285 17.818C13.6193 17.8346 13.4128 17.7592 13.2542 17.6083C12.9239 17.294 12.8878 16.7447 13.1735 16.3814L14.1715 15.1126C14.2043 15.0709 14.2234 15.0181 14.2256 14.963C14.2278 14.9078 14.213 14.8534 14.1835 14.8087L13.3851 13.5941C12.0726 11.6088 10.2533 10.8123 8.88332 10.2777L7.24823 9.93247C7.19895 9.92205 7.14791 9.93026 7.10339 9.95575C7.05887 9.98125 7.02349 10.0225 7.00299 10.0729L6.37952 11.6042C6.20101 12.0426 5.73326 12.2388 5.33473 12.0424C5.14334 11.9481 4.99385 11.7741 4.91913 11.5585C4.8444 11.343 4.85057 11.1036 4.93627 10.8931C5.24732 10.1291 5.71311 8.9854 6.00937 8.25797C6.08943 8.06135 6.2275 7.90024 6.40122 7.80076C6.57494 7.70127 6.77411 7.66925 6.96644 7.70987L9.84529 8.31776Z" fill="#0044F0"/>
</svg>
